<?xml version="1.0" encoding="UTF-8"?>
<svg id="Calque_1" xmlns="http://www.w3.org/2000/svg" version="1.1" viewBox="0 0 144 126.93">
  <!-- Generator: Adobe Illustrator 29.5.1, SVG Export Plug-In . SVG Version: 2.1.0 Build 141)  -->
  <defs>
    <style>
      .st0 {
        fill: #fff;
      }
    </style>
  </defs>
  <path class="st0" d="M98.95,61.98l-1.9-10.1-24.55-24.43-24.56,24.42-1.88,9.12-24.06,23.94v19.84c0,.96.78,1.74,1.74,1.74h1.52c.96,0,1.74-.78,1.74-1.74v-14.84l19.99-19.5c-.04,11.87-19.43,14.77-14.49,27.99l39.86-38.92,39.14,38.92c5.45-13.95-13.63-16.21-13.49-27.99l18.99,19.5v14.92c0,.92.74,1.66,1.66,1.66h2.68c.92,0,1.66-.74,1.66-1.66v-18.92l-24.05-23.95ZM93.99,65.43l-21.63-20.93-20.86,19.92c-.88-1.12-.74-4.13-.48-5.47.84-4.21,18.13-17.76,21.48-22.5,3.6,5.5,18.8,16.19,20.98,21,1.13,2.48.34,5.39.51,7.98Z"/>
  <path class="st0" d="M117.99,62.43l-45.49-44.98L27.5,62.42c-.67-2.27-.9-6.21-.47-8.47,1.04-5.45,37.71-36.48,42.95-44.06l2.39-1.39,44.69,44.37.94,9.55Z"/>
  <path class="st0" d="M22,72.93c-.32,1.11-4.2,3.2-4.8,5.2-2.35,7.92,4.23,19.34-6.19,24.29l-.02-10c-9.31,6.36,2.03,20.13-10.99,26v-39.5l22-21.5c-.75,4.17,1.02,11.9,0,15.5Z"/>
  <path class="st0" d="M144,118.43c-11.89-5.34-.65-19.3-9.99-25l-.02,8.99c-10.47-2.83-4.03-15.99-6.2-23.29-.54-1.81-4.8-4.6-4.8-5.2v-16.5l21,20.5v40.5Z"/>
</svg>