<?xml version="1.0" encoding="UTF-8"?>
<svg xmlns="http://www.w3.org/2000/svg" version="1.1" viewBox="0 0 50 50">
  <defs>
    <style>
      .cls-1 {
        fill: #fff;
      }
    </style>
  </defs>
  <!-- Generator: Adobe Illustrator 28.7.1, SVG Export Plug-In . SVG Version: 1.2.0 Build 142)  -->
  <g>
    <g id="Calque_1">
      <g>
        <path class="cls-1" d="M7.94,29.99c2.1.88,4.17,1.72,6.22,2.62.27.12.49.49.61.79.94,2.42,3.02,3.7,5.58,3.4,2.22-.26,3.88-2.09,4.25-4.56.06-.43.37-.93.72-1.2,1.5-1.15,3.04-2.24,4.61-3.3.49-.33,1.1-.58,1.69-.65,3.42-.42,6.13-3.49,6-6.88-.14-3.61-3.06-6.56-6.57-6.63-3.6-.07-6.57,2.58-6.91,6.13-.05.47-.25.98-.51,1.38-1.1,1.68-2.22,3.35-3.39,4.97-.23.32-.73.47-1.13.62-.47.17-1.03.14-1.43.39-.76.47-1.41.31-2.16-.01-2.46-1.06-4.94-2.09-7.44-3.07-.7-.27-.98-.52-.83-1.38,1.13-6.93,4.88-11.84,11.4-14.4,10.32-4.04,21.78,2.45,23.81,13.35,1.89,10.1-4.63,19.56-14.74,21.21-8.85,1.44-17.29-3.98-19.85-12.57,0-.02.02-.05.07-.21Z"/>
        <path class="cls-1" d="M30.86,15.86c2.46,0,4.5,2.05,4.49,4.52,0,2.44-2.1,4.55-4.51,4.53-2.44-.02-4.47-2.08-4.48-4.56-.01-2.46,2.02-4.49,4.5-4.5ZM27.51,20.39c.01,1.89,1.48,3.37,3.35,3.36,1.83,0,3.39-1.56,3.39-3.38,0-1.85-1.61-3.45-3.45-3.41-1.88.04-3.3,1.52-3.29,3.43Z"/>
        <path class="cls-1" d="M16.29,33.46c.77.32,1.33.57,1.9.79,1.6.62,3.2.02,3.79-1.42.63-1.52-.04-3.08-1.63-3.79-.61-.27-1.23-.52-1.92-.82,1.72-.73,3.79.18,4.56,1.91.83,1.86.05,4.13-1.73,5.01-1.82.9-3.95.25-4.98-1.69Z"/>
      </g>
    </g>
  </g>
</svg>